<?xml version="1.0" encoding="UTF-8" standalone="no"?>
<!-- Created with Inkscape (http://www.inkscape.org/) -->

<svg
   width="2048"
   height="2048"
   viewBox="0 0 541.86665 541.86666"
   version="1.1"
   id="svg1"
   xml:space="preserve"
   inkscape:version="1.4.2 (ebf0e940, 2025-05-08)"
   sodipodi:docname="Logo.svg"
   inkscape:export-filename="../WebstormProjects/CraftTab/extension/images/icon-512x512.png"
   inkscape:export-xdpi="24"
   inkscape:export-ydpi="24"
   xmlns:inkscape="http://www.inkscape.org/namespaces/inkscape"
   xmlns:sodipodi="http://sodipodi.sourceforge.net/DTD/sodipodi-0.dtd"
   xmlns="http://www.w3.org/2000/svg"
   xmlns:svg="http://www.w3.org/2000/svg"><sodipodi:namedview
     id="namedview1"
     pagecolor="#ffffff"
     bordercolor="#000000"
     borderopacity="0.25"
     inkscape:showpageshadow="2"
     inkscape:pageopacity="0.0"
     inkscape:pagecheckerboard="0"
     inkscape:deskcolor="#d1d1d1"
     inkscape:document-units="mm"
     inkscape:zoom="0.19805063"
     inkscape:cx="858.36637"
     inkscape:cy="1229.4836"
     inkscape:window-width="1472"
     inkscape:window-height="818"
     inkscape:window-x="0"
     inkscape:window-y="37"
     inkscape:window-maximized="1"
     inkscape:current-layer="layer1"
     showguides="true" /><defs
     id="defs1"><linearGradient
       id="swatch37"
       inkscape:swatch="solid"><stop
         style="stop-color:#000000;stop-opacity:1;"
         offset="0"
         id="stop37" /></linearGradient></defs><g
     inkscape:label="Ebene 1"
     inkscape:groupmode="layer"
     id="layer1"><rect
       style="font-variation-settings:'wdth' 75, 'wght' 200;fill:#f4d58d;fill-opacity:1;stroke:none;stroke-width:0.662127;stroke-dasharray:none;stroke-opacity:1"
       id="rect37"
       width="541.56512"
       height="543.06927"
       x="0.98813558"
       y="-1.2298548"
       ry="97.512901" /><path
       d="m 96.55779,0.31935765 h 349.73436 c 52.77838,0 95.38234,42.72192035 95.38234,95.64593635 V 446.66714 c 0,52.92406 -42.60396,95.64594 -95.38234,95.64594 H 96.55779 c -52.778431,0 -95.3823006,-42.72188 -95.3823006,-95.64594 V 95.965294 c 0,-52.924016 42.6038696,-95.64593635 95.3823006,-95.64593635 m 0,31.88195835 c -34.974533,0 -63.588612,28.693754 -63.588612,63.763978 V 446.66714 c 0,35.07013 28.614079,63.76391 63.588612,63.76391 h 349.73436 c 34.97333,0 63.58863,-28.69378 63.58863,-63.76391 V 191.61126 H 255.5275 V 32.201316 H 96.55779 m 413.32299,63.763978 c 0,-35.070224 -28.6153,-63.763978 -63.58863,-63.763978 H 287.3224 V 159.72925 h 222.55838 z"
       id="path1"
       style="fill:#153243;fill-opacity:1;stroke-width:31.8379" /><rect
       style="font-variation-settings:'wdth' 75, 'wght' 200;fill:#153243;fill-opacity:1;stroke:none;stroke-width:0.740036;stroke-dasharray:none;stroke-opacity:1"
       id="rect38"
       width="250.03253"
       height="153.59035"
       x="261.52924"
       y="19.958567"
       ry="29.410923" /><path
       d="m 335.23214,363.48981 78.16163,75.84862 -46.09153,44.50493 -77.60647,-75.84862 v -12.48279 l 32.76375,-32.02214 h 12.77262 m 12.63358,-34.32886 -13.46629,-13.02588 -66.50034,65.12943 v 26.73024 l -78.16163,76.39172 -45.53691,-45.04803 77.60648,-75.84862 h 27.34973 l 10.82909,-10.5838 -53.3111,-52.23893 h -18.04812 l -39.01154,-38.5351 36.3738,-35.5499 38.8725,37.99251 v 17.77471 l 54.0053,52.10354 36.92894,-36.09248 -13.32777,-13.70435 18.04811,-17.77471 h -36.92894 l -9.02406,-8.81963 45.953,-45.04806 9.1631,8.95505 v 36.09301 l 18.18665,-17.91061 45.53639,44.50495 c 15.13279,14.92539 15.13279,39.21355 0,54.00306 l -27.34923,-27.27281 z"
       id="path1-8"
       style="fill:#153243;fill-opacity:1;stroke-width:13.725" /><path
       d="m 450.72721,115.44171 h -59.41436 v 59.41435 H 371.50831 V 115.44171 H 312.09395 V 95.636807 h 59.41436 V 36.222441 h 19.80454 v 59.414366 h 59.41436 z"
       id="path1-6"
       style="fill:#f4d58d;fill-opacity:1;stroke-width:9.90233" /><path
       d="m 206.67475,300.66707 h -18.04812 l -39.01154,-38.5351 36.3738,-35.5499 38.8725,37.99251 v 17.77471 z"
       id="path40"
       style="fill:#788475;fill-opacity:1;stroke-width:13.725"
       sodipodi:nodetypes="ccccccc" /><path
       d="m 347.86572,329.16095 -13.46629,-13.02588 -18.6038,-17.77471 -13.32777,-13.70435 18.04811,-17.77471 h -36.92894 l -9.02406,-8.81963 45.953,-45.04806 9.1631,8.95505 v 36.09301 l 18.18665,-17.91061 45.53639,44.50495 c 15.13279,14.92539 15.13279,39.21355 0,54.00306 l -27.34923,-27.27281 z"
       id="path41"
       style="fill:#788475;fill-opacity:1;stroke-width:13.725"
       sodipodi:nodetypes="ccccccccccccccc" /><path
       d="m 335.23214,363.48981 78.16163,75.84862 -46.09153,44.50493 -77.60647,-75.84862 v -12.48279 l 32.76375,-32.02214 h 12.77262 m -67.33305,17.77469 v 26.73024 l -78.16163,76.39172 -45.53691,-45.04803 77.60648,-75.84862 h 27.34973 z"
       id="path43"
       style="fill:#bf0603;fill-opacity:1;stroke-width:13.725"
       sodipodi:nodetypes="cccccccccccccc" /></g></svg>
