<?xml version="1.0" encoding="UTF-8" standalone="no"?>
<!-- Created with Inkscape (http://www.inkscape.org/) -->

<svg
   width="2048"
   height="2048"
   viewBox="0 0 541.86665 541.86666"
   version="1.1"
   id="svg1"
   xml:space="preserve"
   inkscape:version="1.2 (dc2aedaf03, 2022-05-15)"
   sodipodi:docname="Logo.svg"
   inkscape:export-filename="../.github/images/logo.png"
   inkscape:export-xdpi="9.375"
   inkscape:export-ydpi="9.375"
   xmlns:inkscape="http://www.inkscape.org/namespaces/inkscape"
   xmlns:sodipodi="http://sodipodi.sourceforge.net/DTD/sodipodi-0.dtd"
   xmlns="http://www.w3.org/2000/svg"
   xmlns:svg="http://www.w3.org/2000/svg"><sodipodi:namedview
     id="namedview1"
     pagecolor="#ffffff"
     bordercolor="#000000"
     borderopacity="0.25"
     inkscape:showpageshadow="2"
     inkscape:pageopacity="0.0"
     inkscape:pagecheckerboard="0"
     inkscape:deskcolor="#d1d1d1"
     inkscape:document-units="mm"
     inkscape:zoom="0.39610126"
     inkscape:cx="-550.36432"
     inkscape:cy="1565.2563"
     inkscape:window-width="2560"
     inkscape:window-height="1369"
     inkscape:window-x="-8"
     inkscape:window-y="-8"
     inkscape:window-maximized="1"
     inkscape:current-layer="layer1"
     showguides="true"
     showgrid="false"><sodipodi:guide
       position="541.8605,543.69692"
       orientation="1,0"
       id="guide866"
       inkscape:locked="false" /><sodipodi:guide
       position="543.07082,541.8519"
       orientation="0,-1"
       id="guide868"
       inkscape:locked="false" /><sodipodi:guide
       position="541.44721,0.0061587192"
       orientation="0,-1"
       id="guide870"
       inkscape:locked="false" /><sodipodi:guide
       position="0,9.5371787"
       orientation="1,0"
       id="guide872"
       inkscape:locked="false" /></sodipodi:namedview><defs
     id="defs1"><linearGradient
       id="swatch37"
       inkscape:swatch="solid"><stop
         style="stop-color:#000000;stop-opacity:1;"
         offset="0"
         id="stop37" /></linearGradient></defs><g
     inkscape:label="Ebene 1"
     inkscape:groupmode="layer"
     id="layer1"><rect
       style="font-variation-settings:'wdth' 75, 'wght' 200;fill:#f4d58d;fill-opacity:1;stroke:none;stroke-width:0.661544;stroke-dasharray:none;stroke-opacity:1"
       id="rect37"
       width="541.85046"
       height="541.82941"
       x="0.013964524"
       y="0.0099992454"
       ry="97.290276" /><path
       d="m 95.64483,0.00939413 h 350.60825 c 52.91026,0 95.62067,42.72331787 95.62067,95.64906487 V 446.37177 c 0,52.9258 -42.71041,95.64907 -95.62067,95.64907 H 95.64483 c -52.910308,0 -95.62063362,-42.72327 -95.62063362,-95.64907 V 95.658459 C 0.02419638,42.732712 42.734522,0.00939413 95.64483,0.00939413 m 0,31.88300187 c -35.061924,0 -63.747502,28.694691 -63.747502,63.766063 V 446.37177 c 0,35.07129 28.685578,63.766 63.747502,63.766 h 350.60825 c 35.06073,0 63.74753,-28.69471 63.74753,-63.766 V 191.30756 H 255.01176 V 31.892396 H 95.64483 m 414.35578,63.766063 c 0,-35.071372 -28.6868,-63.766063 -63.74753,-63.766063 H 286.8861 V 159.4245 h 223.11451 z"
       id="path1"
       style="fill:#153243;fill-opacity:1;stroke-width:31.8781" /><rect
       style="font-variation-settings:'wdth' 75, 'wght' 200;fill:#153243;fill-opacity:1;stroke:none;stroke-width:0.74797;stroke-dasharray:none;stroke-opacity:1"
       id="rect38"
       width="259.00671"
       height="151.46489"
       x="261.52924"
       y="19.958567"
       ry="29.00392" /><path
       d="m 335.23214,363.48981 78.16163,75.84862 -46.09153,44.50493 -77.60647,-75.84862 v -12.48279 l 32.76375,-32.02214 h 12.77262 m 12.63358,-34.32886 -13.46629,-13.02588 -66.50034,65.12943 v 26.73024 l -78.16163,76.39172 -45.53691,-45.04803 77.60648,-75.84862 h 27.34973 l 10.82909,-10.5838 -53.3111,-52.23893 h -18.04812 l -39.01154,-38.5351 36.3738,-35.5499 38.8725,37.99251 v 17.77471 l 54.0053,52.10354 36.92894,-36.09248 -13.32777,-13.70435 18.04811,-17.77471 h -36.92894 l -9.02406,-8.81963 45.953,-45.04806 9.1631,8.95505 v 36.09301 l 18.18665,-17.91061 45.53639,44.50495 c 15.13279,14.92539 15.13279,39.21355 0,54.00306 l -27.34923,-27.27281 z"
       id="path1-8"
       style="fill:#153243;fill-opacity:1;stroke-width:13.725" /><path
       d="m 450.72721,115.44171 h -59.41436 v 59.41435 H 371.50831 V 115.44171 H 312.09395 V 95.636807 h 59.41436 V 36.222441 h 19.80454 v 59.414366 h 59.41436 z"
       id="path1-6"
       style="fill:#f4d58d;fill-opacity:1;stroke-width:9.90233" /><path
       d="m 206.67475,300.66707 h -18.04812 l -39.01154,-38.5351 36.3738,-35.5499 38.8725,37.99251 v 17.77471 z"
       id="path40"
       style="fill:#788475;fill-opacity:1;stroke-width:13.725"
       sodipodi:nodetypes="ccccccc" /><path
       d="m 347.86572,329.16095 -13.46629,-13.02588 -18.6038,-17.77471 -13.32777,-13.70435 18.04811,-17.77471 h -36.92894 l -9.02406,-8.81963 45.953,-45.04806 9.1631,8.95505 v 36.09301 l 18.18665,-17.91061 45.53639,44.50495 c 15.13279,14.92539 15.13279,39.21355 0,54.00306 l -27.34923,-27.27281 z"
       id="path41"
       style="fill:#788475;fill-opacity:1;stroke-width:13.725"
       sodipodi:nodetypes="ccccccccccccccc" /><path
       d="m 335.23214,363.48981 78.16163,75.84862 -46.09153,44.50493 -77.60647,-75.84862 v -12.48279 l 32.76375,-32.02214 h 12.77262 m -67.33305,17.77469 v 26.73024 l -78.16163,76.39172 -45.53691,-45.04803 77.60648,-75.84862 h 27.34973 z"
       id="path43"
       style="fill:#bf0603;fill-opacity:1;stroke-width:13.725"
       sodipodi:nodetypes="cccccccccccccc" /></g></svg>
